<svg version="1.1" id="Layer_1" xmlns="http://www.w3.org/2000/svg" xmlns:xlink="http://www.w3.org/1999/xlink" x="0px" y="0px"
	 width="100%" viewBox="0 0 681 52" enable-background="new 0 0 681 52" xml:space="preserve">
<path fill="#0E1822" opacity="1.000000" stroke="none" 
	d="
M32.000000,53.000000 
	C21.729868,53.000000 11.459738,53.000000 1.000000,53.000000 
	C1.000000,39.646370 1.000000,26.291842 1.242312,11.876133 
	C1.904188,10.893053 2.323752,10.971155 2.668510,11.539276 
	C2.593704,15.780615 2.593704,19.531935 2.593704,23.811756 
	C6.283666,23.039684 9.063664,22.458010 11.860768,21.872755 
	C11.658807,18.586946 11.486900,15.790117 11.510443,12.762398 
	C11.802302,12.354370 11.898712,12.177235 12.441541,12.000180 
	C24.272141,11.755145 34.920532,8.372268 45.346008,4.193068 
	C46.475784,3.740180 47.126873,2.093134 48.000000,1.000000 
	C259.220551,1.000000 470.441132,1.000000 681.830811,1.000000 
	C681.830811,18.209829 681.830811,35.421875 681.830811,53.000000 
	C637.646423,53.000000 593.291870,53.000000 547.959351,52.818039 
	C547.236267,49.417866 547.491089,46.199661 547.767944,42.703945 
	C542.381775,42.703945 537.694885,42.703945 533.039551,42.703945 
	C532.671326,46.350872 532.335693,49.675438 532.000000,53.000000 
	C513.312439,53.000000 494.624878,53.000000 475.345764,52.517441 
	C479.156006,51.798290 483.557831,51.561703 487.946228,51.325836 
	C487.946228,48.184528 487.946228,45.429428 487.946228,42.680344 
	C483.056458,42.680344 478.470673,42.680344 473.730652,42.680344 
	C473.473755,46.308758 473.236877,49.654377 473.000000,53.000000 
	C448.979095,53.000000 424.958221,53.000000 399.959473,52.817654 
	C399.237793,49.413288 399.493896,46.191269 399.767914,42.744453 
	C394.376343,42.744453 389.698853,42.744453 385.069214,42.744453 
	C385.069214,45.868561 385.069214,48.617134 385.069214,51.619633 
	C388.527740,51.619633 391.678558,51.503826 394.812469,51.682999 
	C395.896545,51.744976 396.938690,52.539879 398.000000,53.000000 
	C374.645782,53.000000 351.291534,53.000000 327.345703,52.517445 
	C331.156036,51.798298 335.557953,51.561710 339.946594,51.325832 
	C339.946594,48.182182 339.946594,45.428493 339.946594,42.680450 
	C335.055023,42.680450 330.469971,42.680450 325.730835,42.680450 
	C325.473877,46.308739 325.236938,49.654369 325.000000,53.000000 
	C300.979095,53.000000 276.958221,53.000000 251.959503,52.817665 
	C251.237808,49.413307 251.493927,46.191284 251.767914,42.744461 
	C246.378372,42.744461 241.699799,42.744461 237.069244,42.744461 
	C237.069244,45.864067 237.069244,48.615448 237.069244,51.619633 
	C240.527771,51.619633 243.678574,51.503830 246.812515,51.682995 
	C247.896561,51.744972 248.938705,52.539879 250.000000,53.000000 
	C231.312439,53.000000 212.624878,53.000000 192.943085,52.852673 
	C191.948868,49.336189 191.948868,45.967033 191.948868,42.695633 
	C187.008575,42.695633 182.430771,42.695633 177.720444,42.695633 
	C177.466202,46.331886 177.233109,49.665943 177.000000,53.000000 
	C133.312439,53.000000 89.624878,53.000000 44.936272,52.862686 
	C43.935223,49.366192 43.935223,46.007019 43.935223,42.380119 
	C39.885723,42.380119 36.117268,42.380119 32.293461,42.380119 
	C30.259439,48.303703 30.263556,48.300888 32.901249,52.155243 
	C32.936672,52.207001 32.314987,52.708443 32.000000,53.000000 
M88.757774,45.767365 
	C88.757774,47.663322 88.757774,49.559280 88.757774,51.312096 
	C94.157402,51.312096 98.745865,51.312096 103.483231,51.312096 
	C103.483231,48.296028 103.483231,45.583389 103.483231,42.401768 
	C99.077629,42.401768 94.958336,42.276768 90.860313,42.516106 
	C90.115753,42.559586 89.458229,44.093449 88.757774,45.767365 
M632.971680,42.388706 
	C629.205566,42.388706 625.439514,42.388706 621.506226,42.388706 
	C621.506226,45.691170 621.506226,48.401989 621.506226,51.309334 
	C626.497314,51.309334 631.190491,51.309334 636.447632,51.309334 
	C634.943542,48.196220 638.948364,44.217304 632.971680,42.388706 
M507.696716,42.401840 
	C506.235962,42.469055 504.775177,42.536266 503.160339,42.610573 
	C503.160339,45.638050 503.160339,48.387726 503.160339,51.335167 
	C508.109192,51.335167 512.845825,51.335167 517.734741,51.335167 
	C517.734741,48.336212 517.734741,45.602303 517.734741,42.401844 
	C514.538208,42.401844 511.584198,42.401844 507.696716,42.401840 
M577.027344,43.835110 
	C572.251648,43.159039 567.476013,42.482967 562.338989,41.755741 
	C562.338989,45.636105 562.338989,48.350407 562.338989,51.335098 
	C567.274353,51.335098 571.985413,51.335098 577.050476,51.335098 
	C577.050476,48.988728 577.050476,46.864506 577.027344,43.835110 
M456.017792,51.607445 
	C461.868103,49.919201 457.535217,45.787430 458.730225,42.613800 
	C453.529724,42.613800 448.937042,42.613800 444.103851,42.613800 
	C444.103851,45.592945 444.103851,48.348244 444.103851,51.611122 
	C447.864136,51.611122 451.488831,51.611122 456.017792,51.607445 
M601.301636,51.611919 
	C603.043518,51.611919 604.785461,51.611919 606.540527,51.611919 
	C606.540527,48.173820 606.540527,45.569370 606.540527,42.702919 
	C601.583008,42.702919 596.870239,42.702919 592.169067,42.702919 
	C592.169067,45.765221 592.169067,48.507664 592.169067,51.611889 
	C595.109375,51.611889 597.745239,51.611889 601.301636,51.611919 
M415.122650,51.424614 
	C419.698181,51.424614 424.273712,51.424614 428.838989,51.424614 
	C428.838989,48.243183 428.838989,45.507683 428.838989,42.729031 
	C423.818176,42.729031 419.098633,42.729031 414.378784,42.729031 
	C414.378784,45.686684 414.378784,48.310631 415.122650,51.424614 
M663.959351,51.579445 
	C664.852234,48.818542 665.745117,46.057640 666.835022,42.687370 
	C660.791687,42.687370 656.081848,42.687370 651.157959,42.687370 
	C651.157959,45.602139 651.157959,48.346668 651.157959,51.601368 
	C655.206055,51.601368 659.132080,51.601368 663.959351,51.579445 
M309.875763,42.576824 
	C305.300690,42.576824 300.725586,42.576824 296.160339,42.576824 
	C296.160339,45.756516 296.160339,48.491997 296.160339,51.271339 
	C301.180328,51.271339 305.899689,51.271339 310.619354,51.271339 
	C310.619354,48.314148 310.619354,45.690533 309.875763,42.576824 
M366.189270,42.401005 
	C362.592285,42.401005 358.995270,42.401005 355.248962,42.401005 
	C355.248962,45.660301 355.248962,48.388302 355.248962,51.323692 
	C360.198853,51.323692 364.912445,51.323692 369.984406,51.323692 
	C369.984406,49.094582 370.318451,47.055153 369.858673,45.213966 
	C369.584564,44.116295 368.064026,43.329876 366.189270,42.401005 
M281.103271,50.189877 
	C281.103271,47.738567 281.103271,45.287258 281.103271,42.763958 
	C275.932159,42.763958 271.210266,42.763958 266.421631,42.763958 
	C266.421631,45.755684 266.421631,48.370296 266.421631,51.758511 
	C271.363525,51.519493 276.090698,51.290855 281.103271,50.189877 
M216.368881,42.402039 
	C213.314011,42.402039 210.259155,42.402039 207.215515,42.402039 
	C207.215515,45.854000 207.215515,48.464939 207.215515,51.335720 
	C212.153168,51.335720 216.890961,51.335720 221.839890,51.335720 
	C221.839890,48.386036 221.839890,45.635941 221.839890,42.609474 
	C220.224426,42.535717 218.761185,42.468914 216.368881,42.402039 
M150.853088,51.602901 
	C154.768814,51.602901 158.684525,51.602901 162.581146,51.602901 
	C162.581146,48.242538 162.581146,45.525776 162.581146,42.726021 
	C157.565643,42.726021 152.876389,42.726021 146.880890,42.726021 
	C148.039383,46.087814 148.987686,48.839634 150.853088,51.602901 
M130.169556,42.390274 
	C126.264282,42.390274 122.359016,42.390274 118.459129,42.390274 
	C118.459129,45.835411 118.459129,48.438744 118.459129,51.292152 
	C123.421524,51.292152 128.133362,51.292152 134.210052,51.292152 
	C133.013733,47.882706 132.052139,45.142235 130.169556,42.390274 
M69.300987,42.395283 
	C66.039337,42.395283 62.777695,42.395283 59.358734,42.395283 
	C59.358734,45.677223 59.358734,48.391186 59.358734,51.337036 
	C64.332428,51.337036 69.041649,51.337036 74.657455,51.337036 
	C72.069923,48.383499 77.951050,42.625313 69.300987,42.395283 
M10.861057,39.492176 
	C12.553355,41.964493 14.245654,44.436810 15.937953,46.909126 
	C16.598457,46.449970 17.258963,45.990810 17.919466,45.531654 
	C19.489309,43.244884 21.059151,40.958111 22.616467,38.689587 
	C20.184807,36.177986 17.910231,33.828632 15.523061,31.362984 
	C13.059611,33.045471 10.767550,34.610905 8.380648,36.241112 
	C9.189841,37.363132 9.767860,38.164612 10.861057,39.492176 
z"/>
<path fill="#0C141C" opacity="1.000000" stroke="none" 
	d="
M47.531342,1.000000 
	C47.126873,2.093134 46.475784,3.740180 45.346008,4.193068 
	C34.920532,8.372268 24.272141,11.755145 12.339481,11.583917 
	C12.226422,7.745375 10.773320,6.433187 7.339721,6.873319 
	C5.255317,7.140506 3.115128,6.972501 1.000000,7.000000 
	C1.000000,5.016660 1.000000,3.033320 1.000000,1.000000 
	C16.354197,1.000000 31.708441,1.000000 47.531342,1.000000 
z"/>
<path fill="#E2E3E4" opacity="1.000000" stroke="none" 
	d="
M177.333328,53.000000 
	C177.233109,49.665943 177.466202,46.331886 177.720444,42.695633 
	C182.430771,42.695633 187.008575,42.695633 191.948868,42.695633 
	C191.948868,45.967033 191.948868,49.336189 192.474426,52.852673 
	C192.555557,53.000000 192.111099,53.000000 191.455994,52.516804 
	C188.511200,51.895325 185.770752,51.587967 183.045639,51.690067 
	C181.682648,51.741135 180.347656,52.539585 179.000000,53.000000 
	C178.555557,53.000000 178.111099,53.000000 177.333328,53.000000 
z"/>
<path fill="#E2E3E4" opacity="1.000000" stroke="none" 
	d="
M532.333313,53.000000 
	C532.335693,49.675438 532.671326,46.350872 533.039551,42.703945 
	C537.694885,42.703945 542.381775,42.703945 547.767944,42.703945 
	C547.491089,46.199661 547.236267,49.417866 547.490723,52.818039 
	C547.555542,53.000000 547.111084,53.000000 546.456177,52.516762 
	C543.511536,51.895325 540.770996,51.588070 538.045898,51.690220 
	C536.682800,51.741310 535.347717,52.539646 534.000000,53.000000 
	C533.555542,53.000000 533.111084,53.000000 532.333313,53.000000 
z"/>
<path fill="#E2E3E4" opacity="1.000000" stroke="none" 
	d="
M398.333313,53.000000 
	C396.938690,52.539879 395.896545,51.744976 394.812469,51.682999 
	C391.678558,51.503826 388.527740,51.619633 385.069214,51.619633 
	C385.069214,48.617134 385.069214,45.868561 385.069214,42.744453 
	C389.698853,42.744453 394.376343,42.744453 399.767914,42.744453 
	C399.493896,46.191269 399.237793,49.413288 399.490845,52.817654 
	C399.555542,53.000000 399.111115,53.000000 398.333313,53.000000 
z"/>
<path fill="#E2E3E4" opacity="1.000000" stroke="none" 
	d="
M325.333313,53.000000 
	C325.236938,49.654369 325.473877,46.308739 325.730835,42.680450 
	C330.469971,42.680450 335.055023,42.680450 339.946594,42.680450 
	C339.946594,45.428493 339.946594,48.182182 339.946594,51.325832 
	C335.557953,51.561710 331.156036,51.798298 326.877075,52.517445 
	C326.555542,53.000000 326.111115,53.000000 325.333313,53.000000 
z"/>
<path fill="#E2E3E4" opacity="1.000000" stroke="none" 
	d="
M250.333328,53.000000 
	C248.938705,52.539879 247.896561,51.744972 246.812515,51.682995 
	C243.678574,51.503830 240.527771,51.619633 237.069244,51.619633 
	C237.069244,48.615448 237.069244,45.864067 237.069244,42.744461 
	C241.699799,42.744461 246.378372,42.744461 251.767914,42.744461 
	C251.493927,46.191284 251.237808,49.413307 251.490845,52.817665 
	C251.555557,53.000000 251.111099,53.000000 250.333328,53.000000 
z"/>
<path fill="#E2E3E4" opacity="1.000000" stroke="none" 
	d="
M473.333313,53.000000 
	C473.236877,49.654377 473.473755,46.308758 473.730652,42.680344 
	C478.470673,42.680344 483.056458,42.680344 487.946228,42.680344 
	C487.946228,45.429428 487.946228,48.184528 487.946228,51.325836 
	C483.557831,51.561703 479.156006,51.798290 474.877106,52.517441 
	C474.555542,53.000000 474.111115,53.000000 473.333313,53.000000 
z"/>
<path fill="#EAEBEC" opacity="1.000000" stroke="none" 
	d="
M32.375000,53.000000 
	C32.314987,52.708443 32.936672,52.207001 32.901249,52.155243 
	C30.263556,48.300888 30.259439,48.303703 32.293461,42.380119 
	C36.117268,42.380119 39.885723,42.380119 43.935223,42.380119 
	C43.935223,46.007019 43.935223,49.366192 44.467613,52.862686 
	C44.555553,53.000000 44.111111,53.000000 43.475067,52.526031 
	C40.522312,52.368046 37.761158,52.684025 35.000000,53.000000 
	C34.250000,53.000000 33.500000,53.000000 32.375000,53.000000 
z"/>
<path fill="#AFB1B3" opacity="1.000000" stroke="none" 
	d="
M1.000000,7.416667 
	C3.115128,6.972501 5.255317,7.140506 7.339721,6.873319 
	C10.773320,6.433187 12.226422,7.745375 11.893062,11.583837 
	C11.898712,12.177235 11.802302,12.354370 11.294751,12.491032 
	C8.170179,11.983458 5.456747,11.516356 2.743315,11.049256 
	C2.323752,10.971155 1.904188,10.893053 1.242312,11.407475 
	C1.000000,10.611111 1.000000,9.222222 1.000000,7.416667 
z"/>
<path fill="#0E1822" opacity="1.000000" stroke="none" 
	d="
M179.460632,53.000000 
	C180.347656,52.539585 181.682648,51.741135 183.045639,51.690067 
	C185.770752,51.587967 188.511200,51.895325 191.122650,52.516804 
	C187.307098,53.000000 183.614182,53.000000 179.460632,53.000000 
z"/>
<path fill="#0E1822" opacity="1.000000" stroke="none" 
	d="
M534.460632,53.000000 
	C535.347717,52.539646 536.682800,51.741310 538.045898,51.690220 
	C540.770996,51.588070 543.511536,51.895325 546.122803,52.516762 
	C542.307068,53.000000 538.614197,53.000000 534.460632,53.000000 
z"/>
<path fill="#0E1822" opacity="1.000000" stroke="none" 
	d="
M35.444164,53.000000 
	C37.761158,52.684025 40.522312,52.368046 43.141735,52.526031 
	C40.629444,53.000000 38.258884,53.000000 35.444164,53.000000 
z"/>
<path fill="#E3E4E6" opacity="1.000000" stroke="none" 
	d="
M88.759148,45.353325 
	C89.458229,44.093449 90.115753,42.559586 90.860313,42.516106 
	C94.958336,42.276768 99.077629,42.401768 103.483231,42.401768 
	C103.483231,45.583389 103.483231,48.296028 103.483231,51.312096 
	C98.745865,51.312096 94.157402,51.312096 88.757774,51.312096 
	C88.757774,49.559280 88.757774,47.663322 88.759148,45.353325 
z"/>
<path fill="#E3E4E5" opacity="1.000000" stroke="none" 
	d="
M633.407471,42.390572 
	C638.948364,44.217304 634.943542,48.196220 636.447632,51.309334 
	C631.190491,51.309334 626.497314,51.309334 621.506226,51.309334 
	C621.506226,48.401989 621.506226,45.691170 621.506226,42.388706 
	C625.439514,42.388706 629.205566,42.388706 633.407471,42.390572 
z"/>
<path fill="#E6E7E8" opacity="1.000000" stroke="none" 
	d="
M508.163452,42.401840 
	C511.584198,42.401844 514.538208,42.401844 517.734741,42.401844 
	C517.734741,45.602303 517.734741,48.336212 517.734741,51.335167 
	C512.845825,51.335167 508.109192,51.335167 503.160339,51.335167 
	C503.160339,48.387726 503.160339,45.638050 503.160339,42.610573 
	C504.775177,42.536266 506.235962,42.469055 508.163452,42.401840 
z"/>
<path fill="#E5E6E7" opacity="1.000000" stroke="none" 
	d="
M577.038940,44.287697 
	C577.050476,46.864506 577.050476,48.988728 577.050476,51.335098 
	C571.985413,51.335098 567.274353,51.335098 562.338989,51.335098 
	C562.338989,48.350407 562.338989,45.636105 562.338989,41.755741 
	C567.476013,42.482967 572.251648,43.159039 577.038940,44.287697 
z"/>
<path fill="#E3E4E6" opacity="1.000000" stroke="none" 
	d="
M455.565674,51.609283 
	C451.488831,51.611122 447.864136,51.611122 444.103851,51.611122 
	C444.103851,48.348244 444.103851,45.592945 444.103851,42.613800 
	C448.937042,42.613800 453.529724,42.613800 458.730225,42.613800 
	C457.535217,45.787430 461.868103,49.919201 455.565674,51.609283 
z"/>
<path fill="#E3E4E5" opacity="1.000000" stroke="none" 
	d="
M600.841370,51.611904 
	C597.745239,51.611889 595.109375,51.611889 592.169067,51.611889 
	C592.169067,48.507664 592.169067,45.765221 592.169067,42.702919 
	C596.870239,42.702919 601.583008,42.702919 606.540527,42.702919 
	C606.540527,45.569370 606.540527,48.173820 606.540527,51.611919 
	C604.785461,51.611919 603.043518,51.611919 600.841370,51.611904 
z"/>
<path fill="#E5E6E7" opacity="1.000000" stroke="none" 
	d="
M414.750732,51.179596 
	C414.378784,48.310631 414.378784,45.686684 414.378784,42.729031 
	C419.098633,42.729031 423.818176,42.729031 428.838989,42.729031 
	C428.838989,45.507683 428.838989,48.243183 428.838989,51.424614 
	C424.273712,51.424614 419.698181,51.424614 414.750732,51.179596 
z"/>
<path fill="#E5E6E7" opacity="1.000000" stroke="none" 
	d="
M663.508728,51.590408 
	C659.132080,51.601368 655.206055,51.601368 651.157959,51.601368 
	C651.157959,48.346668 651.157959,45.602139 651.157959,42.687370 
	C656.081848,42.687370 660.791687,42.687370 666.835022,42.687370 
	C665.745117,46.057640 664.852234,48.818542 663.508728,51.590408 
z"/>
<path fill="#E5E6E7" opacity="1.000000" stroke="none" 
	d="
M310.247559,42.821869 
	C310.619354,45.690533 310.619354,48.314148 310.619354,51.271339 
	C305.899689,51.271339 301.180328,51.271339 296.160339,51.271339 
	C296.160339,48.491997 296.160339,45.756516 296.160339,42.576824 
	C300.725586,42.576824 305.300690,42.576824 310.247559,42.821869 
z"/>
<path fill="#E6E7E8" opacity="1.000000" stroke="none" 
	d="
M366.646545,42.402267 
	C368.064026,43.329876 369.584564,44.116295 369.858673,45.213966 
	C370.318451,47.055153 369.984406,49.094582 369.984406,51.323692 
	C364.912445,51.323692 360.198853,51.323692 355.248962,51.323692 
	C355.248962,48.388302 355.248962,45.660301 355.248962,42.401005 
	C358.995270,42.401005 362.592285,42.401005 366.646545,42.402267 
z"/>
<path fill="#E3E4E6" opacity="1.000000" stroke="none" 
	d="
M280.960571,50.626045 
	C276.090698,51.290855 271.363525,51.519493 266.421631,51.758511 
	C266.421631,48.370296 266.421631,45.755684 266.421631,42.763958 
	C271.210266,42.763958 275.932159,42.763958 281.103271,42.763958 
	C281.103271,45.287258 281.103271,47.738567 280.960571,50.626045 
z"/>
<path fill="#E6E7E8" opacity="1.000000" stroke="none" 
	d="
M216.833405,42.402077 
	C218.761185,42.468914 220.224426,42.535717 221.839890,42.609474 
	C221.839890,45.635941 221.839890,48.386036 221.839890,51.335720 
	C216.890961,51.335720 212.153168,51.335720 207.215515,51.335720 
	C207.215515,48.464939 207.215515,45.854000 207.215515,42.402039 
	C210.259155,42.402039 213.314011,42.402039 216.833405,42.402077 
z"/>
<path fill="#E5E6E7" opacity="1.000000" stroke="none" 
	d="
M150.394531,51.597179 
	C148.987686,48.839634 148.039383,46.087814 146.880890,42.726021 
	C152.876389,42.726021 157.565643,42.726021 162.581146,42.726021 
	C162.581146,45.525776 162.581146,48.242538 162.581146,51.602901 
	C158.684525,51.602901 154.768814,51.602901 150.394531,51.597179 
z"/>
<path fill="#E3E4E6" opacity="1.000000" stroke="none" 
	d="
M130.630051,42.396019 
	C132.052139,45.142235 133.013733,47.882706 134.210052,51.292152 
	C128.133362,51.292152 123.421524,51.292152 118.459129,51.292152 
	C118.459129,48.438744 118.459129,45.835411 118.459129,42.390274 
	C122.359016,42.390274 126.264282,42.390274 130.630051,42.396019 
z"/>
<path fill="#E5E6E7" opacity="1.000000" stroke="none" 
	d="
M69.763504,42.395420 
	C77.951050,42.625313 72.069923,48.383499 74.657455,51.337036 
	C69.041649,51.337036 64.332428,51.337036 59.358734,51.337036 
	C59.358734,48.391186 59.358734,45.677223 59.358734,42.395283 
	C62.777695,42.395283 66.039337,42.395283 69.763504,42.395420 
z"/>
<path fill="#F2F2F3" opacity="1.000000" stroke="none" 
	d="
M2.668510,11.539276 
	C5.456747,11.516356 8.170179,11.983458 11.099302,12.721924 
	C11.486900,15.790117 11.658807,18.586946 11.860768,21.872755 
	C9.063664,22.458010 6.283666,23.039684 2.593704,23.811756 
	C2.593704,19.531935 2.593704,15.780615 2.668510,11.539276 
z"/>
<path fill="#F1F1F2" opacity="1.000000" stroke="none" 
	d="
M10.603468,39.229134 
	C9.767860,38.164612 9.189841,37.363132 8.380648,36.241112 
	C10.767550,34.610905 13.059611,33.045471 15.523061,31.362984 
	C17.910231,33.828632 20.184807,36.177986 22.616467,38.689587 
	C21.059151,40.958111 19.489309,43.244884 17.919466,45.531654 
	C17.258963,45.990810 16.598457,46.449970 15.937953,46.909126 
	C14.245654,44.436810 12.553355,41.964493 10.603468,39.229134 
z"/>
</svg>