<svg version="1.1" id="Layer_1" xmlns="http://www.w3.org/2000/svg" xmlns:xlink="http://www.w3.org/1999/xlink" x="0px" y="0px"
	 width="100%" viewBox="0 0 193 193" enable-background="new 0 0 193 193" xml:space="preserve">
<path fill="#FEFEFE" opacity="1.000000" stroke="none" 
	d="
M108.620682,1.227328 
	C109.750000,1.000000 110.500000,1.000000 111.625000,1.000000 
	C118.425514,2.983220 125.020866,4.339381 131.382355,6.596018 
	C142.604446,10.576876 152.478058,16.742161 161.788834,24.609875 
	C162.910706,25.656570 163.662277,26.561726 164.768341,27.601177 
	C165.183395,27.995132 165.347000,28.154345 165.750107,28.556412 
	C167.354233,30.299620 168.788757,31.730988 170.507416,33.364433 
	C173.866623,37.332520 176.747070,41.245823 180.052521,45.283936 
	C180.445450,45.747574 180.592697,45.944199 180.933502,46.458794 
	C184.238861,53.139790 187.755753,59.288647 190.079895,66.050041 
	C192.248581,72.359230 193.566025,78.731491 193.774109,85.694580 
	C194.000000,94.020897 194.000000,102.041801 194.000000,110.531349 
	C192.590073,119.679756 190.995819,128.245178 187.333450,136.404953 
	C176.519730,160.497940 159.032974,177.585358 134.767944,187.893402 
	C127.646034,190.918869 120.274567,192.762161 112.303848,193.775208 
	C111.555557,194.000000 111.111107,194.000000 110.333328,194.000000 
	C109.833336,193.865875 109.666664,193.731750 109.250000,193.798798 
	C101.312424,194.000000 93.624847,194.000000 85.468636,194.000000 
	C77.504478,192.711075 69.988380,191.677933 62.831474,188.767059 
	C39.831642,179.412506 22.980642,163.553574 11.103909,141.823471 
	C5.277925,131.164062 2.869995,119.856537 1.602629,107.673279 
	C1.501838,104.309532 1.724222,101.315750 1.481387,98.358063 
	C0.169105,82.374718 4.140489,67.557823 11.338264,53.036827 
	C11.595746,52.450081 11.682935,52.212303 11.933545,51.638885 
	C12.574078,50.469704 13.237366,49.781345 14.059278,48.791061 
	C14.949031,47.671455 15.543918,46.755676 16.292282,45.548573 
	C17.847832,43.283295 19.097059,41.212299 20.531866,38.858063 
	C24.426540,34.481205 28.369913,30.612915 32.246391,26.190119 
	C47.106731,12.850828 64.114494,4.751690 83.720016,1.244427 
	C85.066673,1.000000 86.133339,1.000000 87.600006,1.000000 
	C94.725037,2.134877 101.494919,1.273363 108.620682,1.227328 
z"/>
<path fill="#0E1720" opacity="1.000000" stroke="none" 
	d="
M13.664289,51.066563 
	C8.165872,62.014065 4.180039,73.347458 2.258025,85.128670 
	C1.098661,92.235138 2.220293,99.713722 2.242999,107.486061 
	C1.979966,108.083244 1.790901,108.219475 1.300918,108.177849 
	C1.000000,93.979103 1.000000,79.958214 1.000000,65.468658 
	C2.372101,63.615639 3.228267,62.177086 1.238199,60.232292 
	C1.000000,41.557175 1.103815,23.113224 0.903488,4.672575 
	C0.867785,1.385963 1.852182,0.918020 4.805605,0.931404 
	C30.890865,1.049612 56.976887,1.000000 83.531342,1.000000 
	C86.072777,3.730318 83.158073,2.986761 82.316475,3.149576 
	C73.141884,4.924480 64.279572,7.579142 55.868031,11.729076 
	C47.763752,15.727419 40.339836,20.683653 33.363579,26.895294 
	C28.543774,30.183073 23.542196,32.877934 21.751589,38.967789 
	C20.398668,41.405952 18.976788,43.516281 17.269485,45.810570 
	C15.090550,47.769005 11.454440,46.550453 10.408816,49.879749 
	C11.198998,50.970509 12.642372,49.933167 13.664289,51.066563 
z"/>
<path fill="#0E1720" opacity="1.000000" stroke="none" 
	d="
M194.000000,85.531349 
	C192.324951,79.727806 190.848160,73.393990 188.922760,67.199600 
	C186.707230,60.071762 183.304901,53.440998 179.544464,46.692661 
	C179.795563,46.077892 180.216110,46.035557 180.281052,45.903133 
	C180.572113,45.309532 179.488556,45.307182 180.073303,45.627365 
	C180.099014,45.641445 180.053970,45.763309 179.749359,46.111000 
	C176.441696,42.389893 173.322845,38.550762 170.086243,34.398514 
	C169.070312,32.002441 168.090408,29.995546 165.344193,29.176180 
	C165.086777,28.959555 165.023544,28.997160 165.029297,28.960827 
	C164.288956,27.952347 163.789642,26.729130 162.176605,26.202065 
	C147.518387,14.075949 131.333710,5.947935 112.708122,3.049288 
	C111.866127,2.918251 111.064110,2.790602 111.588623,1.321113 
	C138.250183,1.000000 164.500641,1.052454 190.750183,0.922105 
	C193.495911,0.908470 194.108124,1.441559 194.082382,4.230794 
	C193.919907,21.840179 194.000000,39.451801 194.000000,57.531342 
	C193.498581,58.425797 193.248489,58.921391 193.781464,59.786884 
	C194.000000,68.354233 194.000000,76.708466 194.000000,85.531349 
z"/>
<path fill="#0E1821" opacity="1.000000" stroke="none" 
	d="
M193.700317,137.784027 
	C194.000000,155.587433 193.922348,173.175552 194.080536,190.761566 
	C194.105347,193.521515 193.538528,194.123993 190.765640,194.082535 
	C178.158615,193.894165 165.547165,194.000000 152.468658,194.000000 
	C150.557129,190.722458 153.359161,189.558182 155.148819,188.145676 
	C162.606003,182.260117 169.559006,175.919800 175.289398,168.266998 
	C181.216064,160.352097 185.632172,151.667953 189.305374,142.539246 
	C190.114365,140.528748 190.275391,137.762146 193.700317,137.784027 
z"/>
<path fill="#101820" opacity="1.000000" stroke="none" 
	d="
M194.000000,137.531342 
	C191.630768,138.269196 191.503937,140.281769 190.873566,141.950241 
	C184.941055,157.652451 176.217163,171.477524 163.718307,182.853897 
	C159.859299,186.366364 154.741852,188.482330 152.034882,193.653412 
	C138.979111,194.000000 125.958214,194.000000 112.468658,194.000000 
	C112.257370,192.091202 113.962654,192.720810 114.951218,192.546463 
	C154.813080,185.516479 186.875717,153.141968 192.991852,112.219955 
	C193.040268,111.895966 193.178375,111.585373 193.637299,111.134262 
	C194.000000,119.687569 194.000000,128.375137 194.000000,137.531342 
z"/>
<path fill="#101820" opacity="1.000000" stroke="none" 
	d="
M1.000000,108.467941 
	C1.194907,107.992676 1.389814,107.985359 1.876876,107.962540 
	C3.820040,115.699532 4.242853,123.984100 7.331446,131.113846 
	C21.877676,164.692535 46.434528,186.503159 83.289413,192.932602 
	C83.776031,193.017502 84.252884,193.158325 84.867142,193.636520 
	C72.979103,194.000000 60.958210,194.000000 48.468658,194.000000 
	C37.666569,187.444336 28.504791,179.623474 21.017153,169.844193 
	C11.114769,156.911102 4.921318,142.366394 1.243410,126.273445 
	C1.000000,120.311958 1.000000,114.623917 1.000000,108.467941 
z"/>
<path fill="#0E1822" opacity="1.000000" stroke="none" 
	d="
M38.216270,193.702026 
	C26.726742,194.000000 15.450938,193.869690 4.181987,194.089996 
	C1.301175,194.146301 0.896368,193.366974 0.926367,190.713837 
	C1.083803,176.789841 1.000000,162.863098 1.000000,148.468658 
	C4.069376,146.572571 5.521157,148.950760 6.360116,150.901413 
	C13.022635,166.392410 23.855711,178.630157 36.133106,189.792542 
	C37.210495,190.772079 38.621651,191.594208 38.216270,193.702026 
z"/>
<path fill="#0E1720" opacity="1.000000" stroke="none" 
	d="
M38.454109,194.000000 
	C36.410458,190.806747 33.451363,188.832458 30.938633,186.572952 
	C21.116156,177.740326 13.594377,167.163193 7.012479,155.859619 
	C5.416995,153.119568 5.648473,149.210419 1.355426,148.037506 
	C1.000000,140.979050 1.000000,133.958099 1.000000,126.468575 
	C4.321616,128.098160 4.001603,131.884109 4.924414,134.978897 
	C9.424200,150.069656 16.640533,163.426987 27.335161,175.199677 
	C32.990540,181.425125 39.294796,186.458130 46.137875,191.056870 
	C46.994526,191.632584 47.730850,192.233292 47.962540,193.651337 
	C44.969406,194.000000 41.938812,194.000000 38.454109,194.000000 
z"/>
<path fill="#0E1720" opacity="1.000000" stroke="none" 
	d="
M108.531464,1.000000 
	C109.495880,2.111565 108.888870,2.460320 107.931450,2.440148 
	C101.233673,2.299028 94.536369,2.135450 87.919456,1.489530 
	C94.687645,1.000000 101.375290,1.000000 108.531464,1.000000 
z"/>
<path fill="#101A24" opacity="1.000000" stroke="none" 
	d="
M1.000000,60.416664 
	C2.261112,60.066563 3.712672,59.874672 3.905175,61.693375 
	C4.078547,63.331326 3.402631,64.477730 1.365748,64.955139 
	C1.000000,63.611111 1.000000,62.222221 1.000000,60.416664 
z"/>
<path fill="#101A24" opacity="1.000000" stroke="none" 
	d="
M194.000000,59.666668 
	C193.106491,59.862637 191.784302,60.343975 191.559113,59.089352 
	C191.352768,57.939751 192.574722,58.159149 193.654480,58.005585 
	C194.000000,58.444447 194.000000,58.888889 194.000000,59.666668 
z"/>
<path fill="#101820" opacity="1.000000" stroke="none" 
	d="
M109.250000,194.000000 
	C109.151337,193.256500 109.494270,192.915558 110.117844,193.705933 
	C110.000000,194.000000 109.500000,194.000000 109.250000,194.000000 
z"/>
<path fill="#ED242C" opacity="1.000000" stroke="none" 
	d="
M59.458008,131.266632 
	C50.305923,130.209717 50.305927,130.209717 50.305927,121.219528 
	C50.305927,114.252792 50.973385,107.204063 50.130226,100.340912 
	C49.163200,92.469490 52.752777,87.495850 58.609360,82.958382 
	C60.102402,83.705917 60.225410,85.043915 60.342770,86.321716 
	C60.570206,88.797966 62.024628,89.651978 64.732040,89.515717 
	C86.761940,89.302910 108.364700,89.416092 130.397034,89.446686 
	C136.124252,90.539688 135.225006,85.900337 136.817383,83.038696 
	C143.474716,87.230644 146.799240,92.755127 145.928345,101.072639 
	C145.105194,108.934227 145.436386,116.966812 145.867371,124.891144 
	C146.134354,129.800247 144.510437,131.530136 139.808426,130.709610 
	C139.168579,130.597946 138.487442,130.722885 137.386520,130.849060 
	C135.676559,132.150131 134.118042,132.446655 131.967224,132.429138 
	C109.497360,132.776016 87.510490,132.564194 65.040970,132.509766 
	C62.936256,132.418243 61.290462,132.503983 59.458008,131.266632 
z"/>
<path fill="#050404" opacity="1.000000" stroke="none" 
	d="
M64.450684,90.365463 
	C56.977657,92.376541 59.652828,86.874649 59.003067,83.280853 
	C58.991650,71.170250 59.168674,59.508518 59.051506,47.849747 
	C59.021244,44.839127 59.689106,43.877655 62.864086,43.915085 
	C77.859779,44.091885 92.858994,44.038761 107.856186,43.944706 
	C110.059982,43.930885 111.569977,44.647076 113.070534,46.182171 
	C119.241852,52.495525 125.310005,58.936192 131.841599,64.860970 
	C135.749023,68.405396 137.765640,72.159523 136.964447,77.411423 
	C136.741348,78.873779 136.965332,80.404335 137.047638,82.347305 
	C137.050781,84.239182 136.783676,85.714745 136.971100,87.130119 
	C137.432190,90.612038 135.653183,91.333908 132.308701,90.806641 
	C129.502197,87.427147 130.481659,83.630379 130.511612,80.067848 
	C130.546219,75.952141 128.881760,74.375496 124.859299,74.531105 
	C120.871513,74.685387 116.865227,74.691521 112.874474,74.491356 
	C107.847221,74.239197 106.744522,73.148849 106.504463,68.187347 
	C106.311371,64.196381 106.307022,60.189644 106.473579,56.202614 
	C106.639694,52.226292 105.198372,50.455643 101.020508,50.518703 
	C91.033066,50.669453 81.039352,50.674557 71.051964,50.515446 
	C66.916870,50.449574 65.466400,52.150780 65.524483,56.155182 
	C65.654861,65.143929 65.588333,74.136696 65.549538,83.127663 
	C65.539536,85.445702 65.757874,87.805450 64.450684,90.365463 
z"/>
<path fill="#0C0C0C" opacity="1.000000" stroke="none" 
	d="
M59.092319,131.430740 
	C60.502640,130.879623 61.924438,130.800491 63.758667,130.841492 
	C66.330437,134.123291 65.389175,137.721207 65.543869,141.145355 
	C65.798370,146.778610 66.233261,147.385147 71.975586,147.410080 
	C89.420563,147.485855 106.866035,147.471024 124.311111,147.417969 
	C130.035797,147.400558 130.295837,146.988251 130.456665,141.039886 
	C130.541122,137.915543 129.930817,134.708023 131.623703,131.334412 
	C133.293442,130.901230 134.703018,130.843338 136.530106,130.872650 
	C136.947144,137.285156 136.808914,143.614792 137.007370,149.933853 
	C137.099350,152.862671 136.455582,153.959991 133.216049,153.939972 
	C109.746712,153.794998 86.275635,153.793930 62.806313,153.940033 
	C59.511951,153.960556 58.960976,152.747833 59.049809,149.878174 
	C59.235134,143.891525 59.104576,137.895111 59.092319,131.430740 
z"/>
<path fill="#101A24" opacity="1.000000" stroke="none" 
	d="
M22.058548,39.103447 
	C20.597946,38.858253 19.494175,37.757893 20.367409,36.779613 
	C23.810194,32.922680 26.700783,28.292725 32.657902,26.998983 
	C29.462349,30.970440 25.879448,34.940853 22.058548,39.103447 
z"/>
<path fill="#101A24" opacity="1.000000" stroke="none" 
	d="
M13.795519,51.349373 
	C13.649919,51.347279 13.430831,51.376099 13.334616,51.280830 
	C11.597995,49.561333 9.046600,54.959560 8.419109,51.241928 
	C7.943780,48.425777 10.420258,45.771267 14.183088,45.996258 
	C14.838468,46.035442 15.498429,45.997959 16.570168,45.995209 
	C16.509171,46.906250 16.034277,47.817974 15.294052,48.896790 
	C13.993780,49.191177 13.646305,49.924839 13.645988,51.094547 
	C13.811277,51.370174 13.779222,51.322525 13.795519,51.349373 
z"/>
<path fill="#101A24" opacity="1.000000" stroke="none" 
	d="
M165.228729,29.251133 
	C168.165543,28.762852 170.375870,29.550323 169.977707,33.684425 
	C168.435898,32.571167 166.903290,31.056940 165.228729,29.251133 
z"/>
<path fill="#101A24" opacity="1.000000" stroke="none" 
	d="
M162.019470,26.329098 
	C163.491074,25.962078 164.974930,26.025311 165.016998,28.553337 
	C164.064789,28.158537 163.094543,27.392572 162.019470,26.329098 
z"/>
<path fill="#0E1720" opacity="1.000000" stroke="none" 
	d="
M14.009497,51.187206 
	C13.242436,50.203693 12.108287,48.880184 14.810085,48.812675 
	C14.755050,49.710667 14.481383,50.357452 14.009497,51.187206 
z"/>
<path fill="#101A24" opacity="1.000000" stroke="none" 
	d="
M186.836853,51.745590 
	C185.286591,51.587074 184.865067,50.810009 185.452713,49.793545 
	C185.659012,49.436668 186.693710,49.164497 187.061813,49.370029 
	C188.121765,49.961861 188.019867,50.852524 186.836853,51.745590 
z"/>
<path fill="#101A24" opacity="1.000000" stroke="none" 
	d="
M179.612335,46.231094 
	C180.109207,45.165497 179.704391,43.452866 181.452560,43.221462 
	C182.085098,43.137730 182.723129,43.519150 182.752731,44.324104 
	C182.813324,45.973568 181.484726,45.894642 180.033279,46.238544 
	C179.638016,46.333458 179.664124,46.233162 179.612335,46.231094 
z"/>
<path fill="#FDFCFC" opacity="1.000000" stroke="none" 
	d="
M64.615677,90.769592 
	C64.154388,78.228554 64.294403,65.735619 64.056389,53.249889 
	C63.987560,49.638947 65.129662,48.862862 68.529114,48.923149 
	C80.182976,49.129826 91.844948,49.127533 103.498917,48.923973 
	C106.868080,48.865131 108.199135,49.565964 107.978951,53.223747 
	C107.649338,58.699581 108.021019,64.214211 107.837929,69.703789 
	C107.751976,72.280830 108.441895,73.173958 111.137772,73.078835 
	C116.959274,72.873428 122.797188,73.144974 128.619980,72.958466 
	C131.276688,72.873360 132.083359,73.720589 131.964645,76.342209 
	C131.761475,80.829651 131.901550,85.332649 131.888428,90.274628 
	C109.610611,90.753578 87.341835,90.787010 64.615677,90.769592 
z"/>
<path fill="#F9F9F9" opacity="1.000000" stroke="none" 
	d="
M131.429977,130.868973 
	C131.888260,135.792114 131.752686,140.630890 131.951874,145.455841 
	C132.063538,148.160522 131.059769,148.812485 128.503220,148.801468 
	C108.171585,148.713760 87.839211,148.710449 67.507622,148.804276 
	C64.883652,148.816376 64.000099,148.035553 64.109398,145.402176 
	C64.295830,140.910202 64.161095,136.404892 64.166183,131.433411 
	C86.439423,130.900711 108.707756,130.839767 131.429977,130.868973 
z"/>
<path fill="#FEF6F7" opacity="1.000000" stroke="none" 
	d="
M107.705566,102.475243 
	C110.664368,106.609093 110.688408,110.945778 109.917702,115.243492 
	C108.643158,122.350716 95.671143,128.024307 90.016273,124.118393 
	C89.018440,123.429169 89.157867,122.414856 89.155670,121.452530 
	C89.140137,114.637108 89.149437,107.821632 89.144226,101.006180 
	C89.143166,99.619774 89.139168,98.218292 91.077629,98.224503 
	C96.849586,98.242989 102.837662,97.391068 107.705566,102.475243 
z"/>
<path fill="#FEF5F6" opacity="1.000000" stroke="none" 
	d="
M84.843201,108.568939 
	C83.503548,113.542023 80.354637,116.028351 75.715736,115.963547 
	C72.324989,115.916183 71.266205,117.183342 71.695709,120.314728 
	C72.074570,123.076836 71.337486,124.549843 68.014938,124.548187 
	C64.690598,124.546539 64.746124,122.789009 64.771133,120.456139 
	C64.838776,114.147102 64.893929,107.834579 64.748116,101.528206 
	C64.687401,98.902168 65.610588,97.963112 68.198265,98.154976 
	C70.676003,98.338684 73.189995,98.052696 75.664436,98.257866 
	C82.054863,98.787727 84.647720,101.655472 84.843201,108.568939 
z"/>
<path fill="#FEF6F7" opacity="1.000000" stroke="none" 
	d="
M125.898209,114.907021 
	C120.743317,114.250603 121.821602,117.785706 122.087456,120.048241 
	C122.571342,124.166214 120.616364,124.809059 117.214447,124.465988 
	C115.453056,124.288361 114.997093,123.498314 115.004189,121.926506 
	C115.035751,114.937775 115.077774,107.947922 114.977730,100.960442 
	C114.945328,98.697899 115.922493,98.109970 117.976326,98.167252 
	C121.634323,98.269287 125.302567,98.315758 128.956177,98.153122 
	C131.372208,98.045563 132.042023,98.938309 132.118805,101.299805 
	C132.210510,104.120354 130.689041,104.157928 128.693436,104.062561 
	C127.199371,103.991165 125.694817,104.124290 124.202354,104.037987 
	C122.398178,103.933640 121.941643,104.842445 121.977440,106.451515 
	C122.009789,107.904465 122.067360,109.149162 124.025391,109.019363 
	C124.853508,108.964462 125.688721,109.019409 126.520714,109.019821 
	C128.646805,109.020866 130.837555,108.480873 130.798904,112.048759 
	C130.758774,115.755074 128.332825,114.755333 125.898209,114.907021 
z"/>
<path fill="#EE242C" opacity="1.000000" stroke="none" 
	d="
M103.124832,112.719955 
	C103.016655,114.882172 102.388435,116.392075 101.035866,117.493454 
	C99.853622,118.456139 98.402672,119.230576 96.920349,118.698517 
	C95.248566,118.098465 96.152397,116.411003 96.080551,115.233116 
	C95.929703,112.760078 95.905930,110.261948 96.087593,107.793076 
	C96.182243,106.506683 95.056435,104.518227 97.204506,104.053818 
	C99.074059,103.649628 100.740601,104.505692 101.947884,106.106163 
	C103.365578,107.985588 103.143906,110.157921 103.124832,112.719955 
z"/>
<path fill="#EE282F" opacity="1.000000" stroke="none" 
	d="
M73.769302,103.842484 
	C76.476906,103.881798 78.150063,104.611809 78.067085,107.267349 
	C78.013634,108.977852 77.089195,110.075325 75.451859,110.454071 
	C74.218834,110.739304 72.372482,111.441574 72.037720,109.787575 
	C71.640724,107.826134 70.386078,105.254204 73.769302,103.842484 
z"/>
</svg>